<svg xmlns="http://www.w3.org/2000/svg" xmlns:xlink="http://www.w3.org/1999/xlink" width="500" zoomAndPan="magnify" viewBox="0 0 375 374.999991" height="500" preserveAspectRatio="xMidYMid meet" version="1.0"><defs><g/><clipPath id="bfc2f08537"><path d="M 149.652344 111.953125 L 225.34375 111.953125 L 225.34375 210.203125 L 149.652344 210.203125 Z M 149.652344 111.953125 " clip-rule="nonzero"/></clipPath></defs><g clip-path="url(#bfc2f08537)"><path fill="#ffffff" d="M 211.894531 209.402344 C 203.125 207.84375 194.992188 204.03125 187.554688 199.179688 C 185.082031 197.5625 182.710938 195.785156 180.359375 193.988281 C 177.03125 191.449219 173.800781 188.792969 170.808594 185.839844 C 164.449219 179.546875 158.949219 172.257812 155.101562 164.152344 C 153.277344 160.363281 151.917969 156.417969 151.015625 152.308594 C 150.550781 149.914062 150.222656 147.496094 150.039062 145.0625 C 149.578125 139.847656 149.480469 134.558594 150.277344 129.386719 C 151.15625 123.695312 153.289062 117.523438 158.351562 114.25 C 164.769531 110.113281 173.121094 112.210938 179.441406 115.445312 C 186.5 119.082031 192.820312 124.730469 196.785156 131.660156 C 198.65625 134.96875 200.070312 138.457031 201.027344 142.132812 C 201.984375 145.8125 202.449219 149.550781 202.425781 153.347656 C 202.386719 156.382812 202.027344 159.5 200.933594 162.355469 C 200.054688 164.632812 198.660156 166.808594 196.386719 167.867188 C 195.011719 168.503906 192.820312 169.003906 191.601562 167.746094 C 191.0625 167.1875 190.90625 166.328125 190.84375 165.589844 C 190.664062 163.074219 191.464844 160.457031 192.480469 158.179688 C 193.734375 155.367188 195.628906 152.710938 198.160156 150.914062 C 201.152344 148.753906 204.839844 148.136719 208.40625 148.914062 C 211.976562 149.695312 214.6875 151.273438 217.296875 153.347656 C 219.3125 154.917969 220.964844 156.800781 222.261719 159 C 226.167969 165.667969 226.371094 174.496094 223.078125 181.445312 C 221.398438 184.941406 218.960938 187.785156 215.765625 189.972656 C 212.734375 192.050781 209.265625 193.449219 205.738281 194.425781 C 202.207031 195.40625 198.460938 196.042969 194.773438 196.484375 C 190.0625 197.082031 185.34375 197.148438 180.617188 196.683594 C 177.308594 196.363281 173.960938 195.804688 170.832031 194.664062 C 169.835938 194.335938 168.898438 193.882812 168.019531 193.308594 C 167.441406 192.90625 166.703125 192.25 166.941406 191.449219 C 167.183594 190.652344 168.558594 190.671875 169.214844 190.632812 C 170.136719 190.550781 171.054688 190.589844 171.964844 190.75 C 173.699219 191.050781 175.296875 191.769531 176.832031 192.609375 C 178.367188 193.449219 180.339844 194.644531 182.191406 195.523438 C 183.796875 196.28125 185.453125 196.90625 187.15625 197.402344 C 189.191406 198 191.242188 198.261719 193.335938 198.539062 C 196.8125 199.0625 200.242188 199.808594 203.625 200.777344 C 208.066406 201.992188 212.273438 203.769531 216.242188 206.109375 C 217.457031 206.828125 218.734375 207.605469 219.710938 208.644531 C 219.929688 208.863281 220.230469 209.183594 220.25 209.503906 C 220.269531 209.824219 219.890625 209.980469 219.609375 210.042969 C 218.375 210.363281 216.921875 210.121094 215.683594 209.960938 C 214.449219 209.800781 213.152344 209.621094 211.894531 209.402344 C 211.757812 209.382812 211.21875 209.261719 211.21875 209.082031 C 211.21875 208.902344 211.558594 208.945312 211.675781 208.964844 C 212.914062 209.183594 214.148438 209.382812 215.40625 209.523438 C 216.101562 209.601562 216.820312 209.664062 217.539062 209.683594 C 217.957031 209.683594 218.554688 209.722656 218.914062 209.503906 C 219.273438 209.28125 218.277344 208.164062 218.015625 207.964844 C 216.761719 206.925781 215.34375 206.109375 213.929688 205.328125 C 207.351562 201.773438 199.976562 199.835938 192.597656 198.859375 C 190.484375 198.558594 188.414062 198.199219 186.359375 197.5625 C 184.605469 197.015625 182.898438 196.351562 181.234375 195.5625 C 179.503906 194.707031 177.867188 193.6875 176.171875 192.769531 C 174.476562 191.851562 173.242188 191.269531 171.609375 191.109375 C 170.671875 191.027344 169.742188 191.074219 168.816406 191.25 C 168.4375 191.332031 168.117188 191.492188 168.078125 191.929688 C 168.054688 192.191406 168.117188 192.429688 168.257812 192.648438 C 168.558594 193.148438 169.195312 193.488281 169.695312 193.746094 C 170.699219 194.234375 171.742188 194.621094 172.824219 194.90625 C 176.191406 195.863281 179.703125 196.28125 183.191406 196.441406 C 187.777344 196.613281 192.335938 196.335938 196.867188 195.605469 C 203.742188 194.566406 210.941406 192.828125 216.402344 188.253906 C 222.203125 183.402344 224.792969 175.695312 224.097656 168.246094 C 223.738281 164.453125 222.5 160.71875 220.347656 157.582031 C 219.054688 155.683594 217.417969 154.128906 215.605469 152.769531 C 212.992188 150.832031 209.941406 149.253906 206.652344 149.074219 C 203.363281 148.894531 199.957031 150.351562 197.523438 152.75 C 195.410156 154.828125 193.875 157.480469 192.917969 160.296875 C 192.503906 161.5 192.21875 162.730469 192.0625 163.992188 C 191.960938 164.910156 191.921875 165.890625 192.160156 166.789062 C 192.234375 167.125 192.367188 167.4375 192.558594 167.726562 C 192.957031 168.226562 193.636719 168.007812 194.195312 167.867188 C 195.554688 167.492188 196.703125 166.78125 197.644531 165.730469 C 199.296875 163.890625 200.132812 161.4375 200.652344 159.078125 C 201.3125 155.945312 201.390625 152.710938 201.132812 149.535156 C 200.835938 145.898438 200.113281 142.351562 198.957031 138.890625 C 197.78125 135.238281 196.097656 131.839844 193.902344 128.695312 C 191.707031 125.550781 189.101562 122.800781 186.082031 120.4375 C 183.011719 117.941406 179.601562 115.785156 175.914062 114.308594 C 172.605469 112.96875 169.015625 112.152344 165.429688 112.550781 C 163.871094 112.71875 162.382812 113.136719 160.964844 113.8125 C 159.550781 114.488281 158.289062 115.378906 157.175781 116.484375 C 155.179688 118.480469 153.824219 121.039062 152.886719 123.675781 C 151.035156 129.003906 150.714844 134.796875 150.894531 140.410156 C 151.054688 145.179688 151.453125 150.074219 152.667969 154.707031 C 154.78125 162.734375 158.890625 170.203125 163.871094 176.8125 C 166.539062 180.339844 169.460938 183.632812 172.644531 186.699219 C 175.457031 189.394531 178.445312 191.789062 181.535156 194.167969 C 187.15625 198.5 193.117188 202.394531 199.636719 205.269531 C 203.503906 206.984375 207.515625 208.214844 211.675781 208.964844 C 211.816406 208.984375 212.355469 209.101562 212.355469 209.28125 C 212.355469 209.460938 212.015625 209.421875 211.894531 209.402344 Z M 211.894531 209.402344 " fill-opacity="1" fill-rule="nonzero"/></g><g fill="#ffffff" fill-opacity="1"><g transform="translate(117.266652, 250.190699)"><g><path d="M 1.03125 0 L 3.171875 0 C 3.554688 0 3.878906 -0.046875 4.140625 -0.140625 C 4.398438 -0.242188 4.609375 -0.375 4.765625 -0.53125 C 4.929688 -0.695312 5.046875 -0.878906 5.109375 -1.078125 C 5.179688 -1.285156 5.21875 -1.488281 5.21875 -1.6875 C 5.21875 -2.007812 5.144531 -2.269531 5 -2.46875 C 4.863281 -2.664062 4.695312 -2.8125 4.5 -2.90625 C 4.3125 -3.007812 4.113281 -3.078125 3.90625 -3.109375 C 3.707031 -3.148438 3.546875 -3.171875 3.421875 -3.171875 L 3.421875 -3.21875 C 3.617188 -3.21875 3.804688 -3.253906 3.984375 -3.328125 C 4.160156 -3.398438 4.316406 -3.5 4.453125 -3.625 C 4.585938 -3.75 4.691406 -3.890625 4.765625 -4.046875 C 4.847656 -4.210938 4.890625 -4.390625 4.890625 -4.578125 C 4.890625 -4.734375 4.851562 -4.894531 4.78125 -5.0625 C 4.71875 -5.226562 4.613281 -5.378906 4.46875 -5.515625 C 4.332031 -5.648438 4.15625 -5.757812 3.9375 -5.84375 C 3.71875 -5.9375 3.457031 -5.984375 3.15625 -5.984375 L 1.03125 -5.984375 Z M 1.796875 -0.375 L 1.796875 -2.984375 L 2.75 -2.984375 C 3.019531 -2.984375 3.257812 -2.945312 3.46875 -2.875 C 3.675781 -2.800781 3.84375 -2.703125 3.96875 -2.578125 C 4.101562 -2.453125 4.203125 -2.304688 4.265625 -2.140625 C 4.335938 -1.972656 4.375 -1.800781 4.375 -1.625 C 4.375 -1.425781 4.335938 -1.25 4.265625 -1.09375 C 4.191406 -0.9375 4.09375 -0.800781 3.96875 -0.6875 C 3.851562 -0.582031 3.710938 -0.503906 3.546875 -0.453125 C 3.390625 -0.398438 3.222656 -0.375 3.046875 -0.375 Z M 1.796875 -3.375 L 1.796875 -5.609375 L 2.84375 -5.609375 C 3.0625 -5.609375 3.25 -5.578125 3.40625 -5.515625 C 3.570312 -5.453125 3.703125 -5.367188 3.796875 -5.265625 C 3.898438 -5.160156 3.972656 -5.039062 4.015625 -4.90625 C 4.054688 -4.78125 4.078125 -4.648438 4.078125 -4.515625 C 4.078125 -4.347656 4.046875 -4.191406 3.984375 -4.046875 C 3.921875 -3.910156 3.828125 -3.789062 3.703125 -3.6875 C 3.585938 -3.582031 3.453125 -3.503906 3.296875 -3.453125 C 3.148438 -3.398438 2.992188 -3.375 2.828125 -3.375 Z M 1.796875 -3.375 "/></g></g></g><g fill="#ffffff" fill-opacity="1"><g transform="translate(128.008252, 250.190699)"><g><path d="M 1.375 -5.984375 L 1.375 0 L 2.140625 0 L 2.140625 -5.984375 Z M 1.375 -5.984375 "/></g></g></g><g fill="#ffffff" fill-opacity="1"><g transform="translate(136.614271, 250.190699)"><g><path d="M 1.03125 -5.984375 L 1.03125 0 L 1.796875 0 L 1.796875 -2.640625 L 2.171875 -2.640625 C 2.335938 -2.640625 2.472656 -2.625 2.578125 -2.59375 C 2.679688 -2.570312 2.773438 -2.523438 2.859375 -2.453125 C 2.941406 -2.378906 3.019531 -2.289062 3.09375 -2.1875 C 3.175781 -2.082031 3.269531 -1.945312 3.375 -1.78125 L 4.046875 -0.78125 C 4.128906 -0.65625 4.210938 -0.535156 4.296875 -0.421875 C 4.378906 -0.316406 4.46875 -0.222656 4.5625 -0.140625 C 4.65625 -0.0664062 4.765625 -0.0078125 4.890625 0.03125 C 5.015625 0.0820312 5.160156 0.109375 5.328125 0.109375 C 5.453125 0.109375 5.554688 0.0976562 5.640625 0.078125 C 5.722656 0.0664062 5.800781 0.0390625 5.875 0 L 5.875 -0.3125 C 5.851562 -0.3125 5.828125 -0.304688 5.796875 -0.296875 C 5.765625 -0.296875 5.734375 -0.296875 5.703125 -0.296875 C 5.585938 -0.296875 5.484375 -0.3125 5.390625 -0.34375 C 5.296875 -0.382812 5.207031 -0.4375 5.125 -0.5 C 5.050781 -0.5625 4.976562 -0.640625 4.90625 -0.734375 C 4.832031 -0.828125 4.753906 -0.9375 4.671875 -1.0625 C 4.429688 -1.40625 4.242188 -1.679688 4.109375 -1.890625 C 3.984375 -2.097656 3.878906 -2.257812 3.796875 -2.375 C 3.722656 -2.488281 3.660156 -2.570312 3.609375 -2.625 C 3.566406 -2.675781 3.507812 -2.71875 3.4375 -2.75 L 3.359375 -2.796875 L 3.359375 -2.828125 C 3.628906 -2.847656 3.863281 -2.90625 4.0625 -3 C 4.257812 -3.101562 4.421875 -3.234375 4.546875 -3.390625 C 4.671875 -3.546875 4.757812 -3.710938 4.8125 -3.890625 C 4.875 -4.066406 4.90625 -4.242188 4.90625 -4.421875 C 4.90625 -4.578125 4.875 -4.742188 4.8125 -4.921875 C 4.75 -5.109375 4.644531 -5.28125 4.5 -5.4375 C 4.363281 -5.59375 4.164062 -5.722656 3.90625 -5.828125 C 3.65625 -5.929688 3.34375 -5.984375 2.96875 -5.984375 Z M 1.796875 -5.609375 L 2.671875 -5.609375 C 2.878906 -5.609375 3.070312 -5.578125 3.25 -5.515625 C 3.425781 -5.453125 3.578125 -5.363281 3.703125 -5.25 C 3.828125 -5.132812 3.921875 -5 3.984375 -4.84375 C 4.046875 -4.695312 4.078125 -4.53125 4.078125 -4.34375 C 4.078125 -4.195312 4.046875 -4.046875 3.984375 -3.890625 C 3.929688 -3.734375 3.84375 -3.585938 3.71875 -3.453125 C 3.601562 -3.328125 3.457031 -3.222656 3.28125 -3.140625 C 3.113281 -3.066406 2.914062 -3.03125 2.6875 -3.03125 L 1.796875 -3.03125 Z M 1.796875 -5.609375 "/></g></g></g><g fill="#ffffff" fill-opacity="1"><g transform="translate(147.842788, 250.190699)"><g><path d="M 3.234375 0 L 3.234375 -5.515625 L 5.53125 -5.515625 L 5.53125 -5.984375 L 0.171875 -5.984375 L 0.171875 -5.515625 L 2.46875 -5.515625 L 2.46875 0 Z M 3.234375 0 "/></g></g></g><g fill="#ffffff" fill-opacity="1"><g transform="translate(158.63565, 250.190699)"><g><path d="M 1.796875 -2.96875 L 5.390625 -2.96875 L 5.390625 0 L 6.15625 0 L 6.15625 -5.984375 L 5.390625 -5.984375 L 5.390625 -3.375 L 1.796875 -3.375 L 1.796875 -5.984375 L 1.03125 -5.984375 L 1.03125 0 L 1.796875 0 Z M 1.796875 -2.96875 "/></g></g></g><g fill="#ffffff" fill-opacity="1"><g transform="translate(170.914882, 250.190699)"><g/></g></g><g fill="#ffffff" fill-opacity="1"><g transform="translate(178.999816, 250.190699)"><g><path d="M 0.3125 -1.515625 C 0.320312 -1.265625 0.382812 -1.039062 0.5 -0.84375 C 0.625 -0.644531 0.785156 -0.472656 0.984375 -0.328125 C 1.191406 -0.191406 1.429688 -0.0820312 1.703125 0 C 1.972656 0.0703125 2.269531 0.109375 2.59375 0.109375 C 2.925781 0.109375 3.222656 0.0664062 3.484375 -0.015625 C 3.753906 -0.0976562 3.984375 -0.210938 4.171875 -0.359375 C 4.359375 -0.503906 4.503906 -0.679688 4.609375 -0.890625 C 4.710938 -1.109375 4.765625 -1.34375 4.765625 -1.59375 C 4.765625 -1.945312 4.675781 -2.234375 4.5 -2.453125 C 4.320312 -2.679688 4.097656 -2.867188 3.828125 -3.015625 C 3.566406 -3.171875 3.28125 -3.300781 2.96875 -3.40625 C 2.65625 -3.507812 2.363281 -3.617188 2.09375 -3.734375 C 1.832031 -3.847656 1.613281 -3.976562 1.4375 -4.125 C 1.257812 -4.269531 1.171875 -4.46875 1.171875 -4.71875 C 1.171875 -4.851562 1.203125 -4.976562 1.265625 -5.09375 C 1.328125 -5.21875 1.414062 -5.320312 1.53125 -5.40625 C 1.644531 -5.5 1.785156 -5.570312 1.953125 -5.625 C 2.128906 -5.675781 2.332031 -5.703125 2.5625 -5.703125 C 2.925781 -5.703125 3.238281 -5.625 3.5 -5.46875 C 3.757812 -5.3125 3.910156 -5.066406 3.953125 -4.734375 L 4.53125 -4.734375 C 4.5 -4.941406 4.421875 -5.128906 4.296875 -5.296875 C 4.179688 -5.472656 4.03125 -5.617188 3.84375 -5.734375 C 3.664062 -5.847656 3.460938 -5.929688 3.234375 -5.984375 C 3.003906 -6.046875 2.765625 -6.078125 2.515625 -6.078125 C 2.253906 -6.078125 2.003906 -6.039062 1.765625 -5.96875 C 1.523438 -5.90625 1.316406 -5.804688 1.140625 -5.671875 C 0.960938 -5.546875 0.820312 -5.382812 0.71875 -5.1875 C 0.613281 -4.988281 0.5625 -4.757812 0.5625 -4.5 C 0.5625 -4.164062 0.644531 -3.894531 0.8125 -3.6875 C 0.976562 -3.488281 1.191406 -3.316406 1.453125 -3.171875 C 1.710938 -3.035156 1.992188 -2.921875 2.296875 -2.828125 C 2.597656 -2.734375 2.878906 -2.625 3.140625 -2.5 C 3.398438 -2.375 3.613281 -2.222656 3.78125 -2.046875 C 3.957031 -1.867188 4.046875 -1.632812 4.046875 -1.34375 C 4.046875 -0.96875 3.910156 -0.695312 3.640625 -0.53125 C 3.367188 -0.363281 3.007812 -0.28125 2.5625 -0.28125 C 2.195312 -0.28125 1.90625 -0.328125 1.6875 -0.421875 C 1.476562 -0.515625 1.316406 -0.625 1.203125 -0.75 C 1.085938 -0.882812 1.007812 -1.019531 0.96875 -1.15625 C 0.925781 -1.300781 0.898438 -1.421875 0.890625 -1.515625 Z M 0.3125 -1.515625 "/></g></g></g><g fill="#ffffff" fill-opacity="1"><g transform="translate(189.433895, 250.190699)"><g><path d="M 1.03125 -5.984375 L 1.03125 0 L 4.890625 0 L 4.890625 -0.46875 L 1.796875 -0.46875 L 1.796875 -2.96875 L 4.453125 -2.96875 L 4.453125 -3.375 L 1.796875 -3.375 L 1.796875 -5.515625 L 4.890625 -5.515625 L 4.890625 -5.984375 Z M 1.03125 -5.984375 "/></g></g></g><g fill="#ffffff" fill-opacity="1"><g transform="translate(199.671505, 250.190699)"><g><path d="M 1.03125 -5.984375 L 1.03125 0 L 1.796875 0 L 1.796875 -2.640625 L 2.171875 -2.640625 C 2.335938 -2.640625 2.472656 -2.625 2.578125 -2.59375 C 2.679688 -2.570312 2.773438 -2.523438 2.859375 -2.453125 C 2.941406 -2.378906 3.019531 -2.289062 3.09375 -2.1875 C 3.175781 -2.082031 3.269531 -1.945312 3.375 -1.78125 L 4.046875 -0.78125 C 4.128906 -0.65625 4.210938 -0.535156 4.296875 -0.421875 C 4.378906 -0.316406 4.46875 -0.222656 4.5625 -0.140625 C 4.65625 -0.0664062 4.765625 -0.0078125 4.890625 0.03125 C 5.015625 0.0820312 5.160156 0.109375 5.328125 0.109375 C 5.453125 0.109375 5.554688 0.0976562 5.640625 0.078125 C 5.722656 0.0664062 5.800781 0.0390625 5.875 0 L 5.875 -0.3125 C 5.851562 -0.3125 5.828125 -0.304688 5.796875 -0.296875 C 5.765625 -0.296875 5.734375 -0.296875 5.703125 -0.296875 C 5.585938 -0.296875 5.484375 -0.3125 5.390625 -0.34375 C 5.296875 -0.382812 5.207031 -0.4375 5.125 -0.5 C 5.050781 -0.5625 4.976562 -0.640625 4.90625 -0.734375 C 4.832031 -0.828125 4.753906 -0.9375 4.671875 -1.0625 C 4.429688 -1.40625 4.242188 -1.679688 4.109375 -1.890625 C 3.984375 -2.097656 3.878906 -2.257812 3.796875 -2.375 C 3.722656 -2.488281 3.660156 -2.570312 3.609375 -2.625 C 3.566406 -2.675781 3.507812 -2.71875 3.4375 -2.75 L 3.359375 -2.796875 L 3.359375 -2.828125 C 3.628906 -2.847656 3.863281 -2.90625 4.0625 -3 C 4.257812 -3.101562 4.421875 -3.234375 4.546875 -3.390625 C 4.671875 -3.546875 4.757812 -3.710938 4.8125 -3.890625 C 4.875 -4.066406 4.90625 -4.242188 4.90625 -4.421875 C 4.90625 -4.578125 4.875 -4.742188 4.8125 -4.921875 C 4.75 -5.109375 4.644531 -5.28125 4.5 -5.4375 C 4.363281 -5.59375 4.164062 -5.722656 3.90625 -5.828125 C 3.65625 -5.929688 3.34375 -5.984375 2.96875 -5.984375 Z M 1.796875 -5.609375 L 2.671875 -5.609375 C 2.878906 -5.609375 3.070312 -5.578125 3.25 -5.515625 C 3.425781 -5.453125 3.578125 -5.363281 3.703125 -5.25 C 3.828125 -5.132812 3.921875 -5 3.984375 -4.84375 C 4.046875 -4.695312 4.078125 -4.53125 4.078125 -4.34375 C 4.078125 -4.195312 4.046875 -4.046875 3.984375 -3.890625 C 3.929688 -3.734375 3.84375 -3.585938 3.71875 -3.453125 C 3.601562 -3.328125 3.457031 -3.222656 3.28125 -3.140625 C 3.113281 -3.066406 2.914062 -3.03125 2.6875 -3.03125 L 1.796875 -3.03125 Z M 1.796875 -5.609375 "/></g></g></g><g fill="#ffffff" fill-opacity="1"><g transform="translate(210.90002, 250.190699)"><g><path d="M 0.25 -5.984375 L 2.765625 0 L 3.265625 0 L 5.703125 -5.984375 L 5.25 -5.984375 L 3.265625 -1.0625 L 3.234375 -1.0625 L 1.171875 -5.984375 Z M 0.25 -5.984375 "/></g></g></g><g fill="#ffffff" fill-opacity="1"><g transform="translate(221.949153, 250.190699)"><g><path d="M 1.375 -5.984375 L 1.375 0 L 2.140625 0 L 2.140625 -5.984375 Z M 1.375 -5.984375 "/></g></g></g><g fill="#ffffff" fill-opacity="1"><g transform="translate(230.555173, 250.190699)"><g><path d="M 6.0625 -1.109375 C 5.476562 -0.554688 4.785156 -0.28125 3.984375 -0.28125 C 3.546875 -0.28125 3.15625 -0.359375 2.8125 -0.515625 C 2.46875 -0.671875 2.179688 -0.875 1.953125 -1.125 C 1.722656 -1.382812 1.550781 -1.679688 1.4375 -2.015625 C 1.320312 -2.347656 1.265625 -2.695312 1.265625 -3.0625 C 1.265625 -3.457031 1.320312 -3.8125 1.4375 -4.125 C 1.5625 -4.445312 1.734375 -4.722656 1.953125 -4.953125 C 2.179688 -5.191406 2.445312 -5.375 2.75 -5.5 C 3.0625 -5.632812 3.394531 -5.703125 3.75 -5.703125 C 4 -5.703125 4.222656 -5.671875 4.421875 -5.609375 C 4.617188 -5.554688 4.796875 -5.484375 4.953125 -5.390625 C 5.117188 -5.304688 5.25 -5.207031 5.34375 -5.09375 C 5.445312 -4.976562 5.519531 -4.859375 5.5625 -4.734375 L 6.1875 -4.734375 C 6.101562 -4.929688 5.992188 -5.109375 5.859375 -5.265625 C 5.722656 -5.429688 5.554688 -5.570312 5.359375 -5.6875 C 5.160156 -5.8125 4.925781 -5.90625 4.65625 -5.96875 C 4.382812 -6.039062 4.082031 -6.078125 3.75 -6.078125 C 3.25 -6.078125 2.796875 -6.003906 2.390625 -5.859375 C 1.984375 -5.722656 1.632812 -5.519531 1.34375 -5.25 C 1.050781 -4.988281 0.820312 -4.671875 0.65625 -4.296875 C 0.5 -3.929688 0.421875 -3.515625 0.421875 -3.046875 C 0.421875 -2.648438 0.484375 -2.257812 0.609375 -1.875 C 0.742188 -1.5 0.941406 -1.164062 1.203125 -0.875 C 1.472656 -0.582031 1.816406 -0.34375 2.234375 -0.15625 C 2.648438 0.0195312 3.144531 0.109375 3.71875 0.109375 C 4.082031 0.109375 4.410156 0.0703125 4.703125 0 C 4.992188 -0.0703125 5.242188 -0.15625 5.453125 -0.25 C 5.671875 -0.351562 5.847656 -0.460938 5.984375 -0.578125 C 6.128906 -0.691406 6.238281 -0.789062 6.3125 -0.875 Z M 6.0625 -1.109375 "/></g></g></g><g fill="#ffffff" fill-opacity="1"><g transform="translate(242.133923, 250.190699)"><g><path d="M 1.03125 -5.984375 L 1.03125 0 L 4.890625 0 L 4.890625 -0.46875 L 1.796875 -0.46875 L 1.796875 -2.96875 L 4.453125 -2.96875 L 4.453125 -3.375 L 1.796875 -3.375 L 1.796875 -5.515625 L 4.890625 -5.515625 L 4.890625 -5.984375 Z M 1.03125 -5.984375 "/></g></g></g><g fill="#ffffff" fill-opacity="1"><g transform="translate(252.371532, 250.190699)"><g><path d="M 0.3125 -1.515625 C 0.320312 -1.265625 0.382812 -1.039062 0.5 -0.84375 C 0.625 -0.644531 0.785156 -0.472656 0.984375 -0.328125 C 1.191406 -0.191406 1.429688 -0.0820312 1.703125 0 C 1.972656 0.0703125 2.269531 0.109375 2.59375 0.109375 C 2.925781 0.109375 3.222656 0.0664062 3.484375 -0.015625 C 3.753906 -0.0976562 3.984375 -0.210938 4.171875 -0.359375 C 4.359375 -0.503906 4.503906 -0.679688 4.609375 -0.890625 C 4.710938 -1.109375 4.765625 -1.34375 4.765625 -1.59375 C 4.765625 -1.945312 4.675781 -2.234375 4.5 -2.453125 C 4.320312 -2.679688 4.097656 -2.867188 3.828125 -3.015625 C 3.566406 -3.171875 3.28125 -3.300781 2.96875 -3.40625 C 2.65625 -3.507812 2.363281 -3.617188 2.09375 -3.734375 C 1.832031 -3.847656 1.613281 -3.976562 1.4375 -4.125 C 1.257812 -4.269531 1.171875 -4.46875 1.171875 -4.71875 C 1.171875 -4.851562 1.203125 -4.976562 1.265625 -5.09375 C 1.328125 -5.21875 1.414062 -5.320312 1.53125 -5.40625 C 1.644531 -5.5 1.785156 -5.570312 1.953125 -5.625 C 2.128906 -5.675781 2.332031 -5.703125 2.5625 -5.703125 C 2.925781 -5.703125 3.238281 -5.625 3.5 -5.46875 C 3.757812 -5.3125 3.910156 -5.066406 3.953125 -4.734375 L 4.53125 -4.734375 C 4.5 -4.941406 4.421875 -5.128906 4.296875 -5.296875 C 4.179688 -5.472656 4.03125 -5.617188 3.84375 -5.734375 C 3.664062 -5.847656 3.460938 -5.929688 3.234375 -5.984375 C 3.003906 -6.046875 2.765625 -6.078125 2.515625 -6.078125 C 2.253906 -6.078125 2.003906 -6.039062 1.765625 -5.96875 C 1.523438 -5.90625 1.316406 -5.804688 1.140625 -5.671875 C 0.960938 -5.546875 0.820312 -5.382812 0.71875 -5.1875 C 0.613281 -4.988281 0.5625 -4.757812 0.5625 -4.5 C 0.5625 -4.164062 0.644531 -3.894531 0.8125 -3.6875 C 0.976562 -3.488281 1.191406 -3.316406 1.453125 -3.171875 C 1.710938 -3.035156 1.992188 -2.921875 2.296875 -2.828125 C 2.597656 -2.734375 2.878906 -2.625 3.140625 -2.5 C 3.398438 -2.375 3.613281 -2.222656 3.78125 -2.046875 C 3.957031 -1.867188 4.046875 -1.632812 4.046875 -1.34375 C 4.046875 -0.96875 3.910156 -0.695312 3.640625 -0.53125 C 3.367188 -0.363281 3.007812 -0.28125 2.5625 -0.28125 C 2.195312 -0.28125 1.90625 -0.328125 1.6875 -0.421875 C 1.476562 -0.515625 1.316406 -0.625 1.203125 -0.75 C 1.085938 -0.882812 1.007812 -1.019531 0.96875 -1.15625 C 0.925781 -1.300781 0.898438 -1.421875 0.890625 -1.515625 Z M 0.3125 -1.515625 "/></g></g></g></svg>